<svg width="611" height="119" viewBox="0 0 611 119" fill="none" xmlns="http://www.w3.org/2000/svg">
<g clip-path="url(#clip0_12_2)">
<path d="M159.214 70.3057C159.844 76.2044 165.202 86.3163 180.752 86.3163C194.304 86.3163 200.819 77.679 200.819 69.2524C200.819 61.6684 195.67 55.4537 185.48 53.3469L178.125 51.767C175.289 51.2404 173.398 49.6604 173.398 47.1324C173.398 44.1829 176.339 41.9711 180.017 41.9711C185.9 41.9711 188.106 45.8683 188.527 48.9231L200.188 46.2898C199.558 40.7071 194.62 31.3325 179.912 31.3325C168.775 31.3325 160.58 39.0218 160.58 48.291C160.58 55.5589 165.097 61.5632 175.078 63.775L181.908 65.355C185.9 66.1976 187.476 68.0938 187.476 70.4111C187.476 73.1498 185.27 75.5724 180.647 75.5724C174.553 75.5724 171.506 71.7803 171.191 67.6723L159.214 70.3057Z" fill="white"/>
<path d="M245.474 84.7363H258.817C258.606 82.9456 258.291 79.3644 258.291 75.3615V32.9124H244.317V63.0376C244.317 69.0417 240.745 73.2549 234.547 73.2549C228.033 73.2549 225.091 68.6202 225.091 62.8269V32.9124H211.118V65.671C211.118 76.9416 218.261 86.1057 230.764 86.1057C236.227 86.1057 242.218 83.999 245.054 79.1536C245.054 81.2603 245.263 83.6829 245.474 84.7363Z" fill="white"/>
<path d="M407.972 104.75V79.6806C410.493 83.1564 415.747 86.0006 422.892 86.0006C437.495 86.0006 447.264 74.4137 447.264 58.7191C447.264 43.3406 438.545 31.7539 423.416 31.7539C415.643 31.7539 409.864 35.2298 407.552 39.2326V32.9125H394V104.75H407.972ZM433.501 58.8245C433.501 68.094 427.829 73.4658 420.684 73.4658C413.541 73.4658 407.763 67.9886 407.763 58.8245C407.763 49.6606 413.541 44.2885 420.684 44.2885C427.829 44.2885 433.501 49.6606 433.501 58.8245Z" fill="white"/>
<path d="M334.382 70.6217C334.382 78.7324 341.105 86.2111 352.138 86.2111C359.806 86.2111 364.744 82.6296 367.37 78.5216C367.37 80.523 367.58 83.3669 367.896 84.7363H380.713C380.398 82.9457 380.084 79.259 380.084 76.5204V51.0297C380.084 40.6017 373.99 31.3325 357.601 31.3325C343.732 31.3325 336.272 40.2856 335.433 48.3964L347.83 51.0297C348.25 46.5004 351.612 42.6031 357.704 42.6031C363.589 42.6031 366.426 45.6577 366.426 49.3444C366.426 51.1351 365.481 52.6098 362.539 53.0311L349.827 54.9271C341.212 56.1911 334.382 61.3523 334.382 70.6217ZM355.078 75.783C350.562 75.783 348.354 72.8337 348.354 69.7791C348.354 65.7764 351.191 63.775 354.764 63.2484L366.426 61.4577V63.775C366.426 72.9391 360.962 75.783 355.078 75.783Z" fill="white"/>
<path d="M286.553 84.2614V77.9413C289.284 82.3654 294.747 85.5254 301.892 85.5254C316.602 85.5254 326.267 73.8333 326.267 58.1387C326.267 42.76 317.546 31.068 302.417 31.068C294.747 31.068 289.074 34.4387 286.763 38.1252V8H273V84.2614H286.553ZM312.292 58.2439C312.292 67.7239 306.62 72.9906 299.475 72.9906C292.436 72.9906 286.553 67.6187 286.553 58.2439C286.553 48.7639 292.436 43.6026 299.475 43.6026C306.62 43.6026 312.292 48.7639 312.292 58.2439Z" fill="white"/>
<path d="M455.348 70.6217C455.348 78.7324 462.071 86.2111 473.102 86.2111C480.771 86.2111 485.711 82.6296 488.335 78.5216C488.335 80.523 488.547 83.3669 488.861 84.7363H501.679C501.365 82.9457 501.05 79.259 501.05 76.5204V51.0297C501.05 40.6017 494.955 31.3325 478.566 31.3325C464.698 31.3325 457.239 40.2856 456.398 48.3964L468.794 51.0297C469.216 46.5004 472.578 42.6031 478.67 42.6031C484.555 42.6031 487.391 45.6577 487.391 49.3444C487.391 51.1351 486.446 52.6098 483.503 53.0311L470.792 54.9271C462.177 56.1911 455.348 61.3523 455.348 70.6217ZM476.045 75.783C471.527 75.783 469.32 72.8337 469.32 69.7791C469.32 65.7764 472.156 63.775 475.729 63.2484L487.391 61.4577V63.775C487.391 72.9391 481.928 75.783 476.045 75.783Z" fill="white"/>
<path d="M510.721 70.3057C511.35 76.2044 516.709 86.3163 532.258 86.3163C545.811 86.3163 552.324 77.679 552.324 69.2524C552.324 61.6684 547.177 55.4537 536.986 53.3469L529.631 51.767C526.794 51.2404 524.905 49.6604 524.905 47.1324C524.905 44.1829 527.845 41.9711 531.523 41.9711C537.407 41.9711 539.613 45.8683 540.034 48.9231L551.695 46.2898C551.064 40.7071 546.127 31.3325 531.418 31.3325C520.281 31.3325 512.087 39.0218 512.087 48.291C512.087 55.5589 516.603 61.5632 526.585 63.775L533.414 65.355C537.407 66.1976 538.983 68.0938 538.983 70.4111C538.983 73.1498 536.777 75.5724 532.154 75.5724C526.059 75.5724 523.014 71.7803 522.698 67.6723L510.721 70.3057Z" fill="white"/>
<path d="M573.546 52.9256C573.862 48.1858 577.855 42.7083 585.104 42.7083C593.088 42.7083 596.451 47.7644 596.661 52.9256H573.546ZM598.027 66.4085C596.345 71.0429 592.773 74.3084 586.259 74.3084C579.325 74.3084 573.546 69.3577 573.233 62.5111H610.213C610.213 62.3002 610.423 60.1937 610.423 58.1923C610.423 41.5497 600.863 31.3325 584.893 31.3325C571.656 31.3325 559.468 42.0763 559.468 58.6137C559.468 76.099 571.97 86.3163 586.154 86.3163C598.866 86.3163 607.062 78.8376 609.689 69.8843L598.027 66.4085Z" fill="white"/>
<path d="M66.9971 116.14C63.99 119.932 57.8927 117.854 57.8203 113.012L56.7607 42.1899H104.315C112.929 42.1899 117.733 52.1523 112.377 58.9075L66.9971 116.14Z" fill="url(#paint0_linear_12_2)"/>
<path d="M66.9971 116.14C63.99 119.932 57.8927 117.854 57.8203 113.012L56.7607 42.1899H104.315C112.929 42.1899 117.733 52.1523 112.377 58.9075L66.9971 116.14Z" fill="url(#paint1_linear_12_2)" fill-opacity="0.2"/>
<path d="M47.6569 2.18101C50.6641 -1.61161 56.7614 0.466474 56.8339 5.30868L57.2982 76.1307H10.3387C1.72503 76.1307 -3.07898 66.1683 2.27726 59.4131L47.6569 2.18101Z" fill="#3ECF8E"/>
</g>
<defs>
<linearGradient id="paint0_linear_12_2" x1="56.7607" y1="57.893" x2="99.0432" y2="75.6016" gradientUnits="userSpaceOnUse">
<stop stop-color="#249361"/>
<stop offset="1" stop-color="#3ECF8E"/>
</linearGradient>
<linearGradient id="paint1_linear_12_2" x1="38.0227" y1="32.2016" x2="57.3395" y2="68.514" gradientUnits="userSpaceOnUse">
<stop/>
<stop offset="1" stop-opacity="0"/>
</linearGradient>
<clipPath id="clip0_12_2">
<rect width="611" height="119" fill="white"/>
</clipPath>
</defs>
</svg>
